<svg width="28" height="34" viewBox="0 0 28 34" fill="none" xmlns="http://www.w3.org/2000/svg">
<path d="M14.0457 8.13525C13.3428 8.13525 12.6557 7.92357 12.0712 7.52697C11.4867 7.13036 11.0312 6.56666 10.7622 5.90713C10.4932 5.2476 10.4228 4.52188 10.56 3.82173C10.6971 3.12158 11.0356 2.47845 11.5326 1.97367C12.0297 1.46889 12.6629 1.12513 13.3524 0.985859C14.0418 0.84659 14.7564 0.918068 15.4058 1.19125C16.0552 1.46444 16.6102 1.92706 17.0008 2.52062C17.3913 3.11418 17.5997 3.81201 17.5997 4.52588C17.5987 5.48283 17.224 6.4003 16.5577 7.07696C15.8914 7.75363 14.988 8.13423 14.0457 8.13525Z" fill="white"/>
<path d="M25.2155 8.18682L25.1869 8.19455L25.1603 8.20293C25.0968 8.22098 25.0333 8.24031 24.9699 8.26029C23.7888 8.61221 18.0567 10.2532 14.0184 10.2532C10.2658 10.2532 5.05214 8.83522 3.38429 8.35375C3.2183 8.28857 3.04878 8.23305 2.87657 8.18746C1.67074 7.8652 0.845703 9.10914 0.845703 10.2461C0.845703 11.3721 1.8421 11.9083 2.84801 12.2931V12.3112L8.89111 14.228C9.50862 14.4684 9.67363 14.714 9.75423 14.9267C10.0163 15.6092 9.80691 16.9608 9.73265 17.4326L9.36456 20.333L7.32163 31.689C7.31529 31.7199 7.30957 31.7515 7.3045 31.7838L7.2899 31.8656C7.14266 32.9065 7.89535 33.9165 9.32077 33.9165C10.5647 33.9165 11.1136 33.0445 11.3516 31.8579C11.3516 31.8579 13.1286 21.702 14.0171 21.702C14.9057 21.702 16.736 31.8579 16.736 31.8579C16.974 33.0445 17.5229 33.9165 18.7668 33.9165C20.1961 33.9165 20.9488 32.902 20.7977 31.8579C20.7844 31.7689 20.7685 31.6813 20.7495 31.5962L18.6786 20.3343L18.3112 17.4339C18.0452 15.7446 18.2591 15.1864 18.3315 15.0556C18.3334 15.0525 18.3351 15.0493 18.3365 15.0459C18.4051 14.917 18.7173 14.6283 19.4459 14.3505L25.112 12.3389C25.1468 12.3295 25.1811 12.3183 25.2148 12.3054C26.2303 11.9187 27.2457 11.3837 27.2457 10.2474C27.2457 9.11108 26.4213 7.8652 25.2155 8.18682Z" fill="white"/>
</svg>
