<?xml version="1.0" standalone="no"?>
<!DOCTYPE svg PUBLIC "-//W3C//DTD SVG 20010904//EN"
 "http://www.w3.org/TR/2001/REC-SVG-20010904/DTD/svg10.dtd">
<svg version="1.0" xmlns="http://www.w3.org/2000/svg"
 width="881.000000pt" height="428.000000pt" viewBox="0 0 881.000000 428.000000"
 preserveAspectRatio="xMidYMid meet">

<g transform="translate(0.000000,428.000000) scale(0.100000,-0.100000)"
fill="#000000" stroke="none">
<path d="M4426 3943 c-7 -16 -17 -47 -21 -70 -8 -50 -21 -55 -30 -13 -8 34
-50 90 -69 90 -7 0 -18 -11 -24 -24 -9 -20 -8 -27 5 -38 9 -7 23 -13 32 -13
10 0 25 -22 40 -63 27 -70 34 -67 52 18 16 78 26 93 55 86 19 -5 24 -2 24 12
0 21 -18 42 -37 42 -7 0 -19 -12 -27 -27z"/>
<path d="M4625 3830 c-11 -4 -28 -22 -38 -39 l-18 -31 73 0 c40 0 80 -5 88
-11 18 -12 18 -11 -75 -64 -68 -39 -53 -45 30 -14 43 16 65 32 96 71 44 56 46
79 9 89 -35 10 -141 9 -165 -1z"/>
<path d="M3650 3791 c-40 -39 -40 -81 -2 -110 l27 -21 -35 -29 c-19 -17 -81
-58 -137 -91 -57 -34 -103 -63 -103 -65 0 -9 117 37 159 62 25 15 67 46 93 71
46 43 67 47 69 14 0 -9 7 -2 15 16 12 28 13 37 2 50 -7 8 -13 40 -13 71 0 51
-2 56 -23 59 -14 2 -33 -7 -52 -27z m50 -46 c0 -28 -8 -31 -35 -12 -21 16 -12
37 16 37 14 0 19 -7 19 -25z"/>
<path d="M5136 3781 c-4 -6 -11 -35 -16 -64 -9 -50 -3 -107 40 -427 17 -131
33 -489 27 -647 -5 -173 -8 -181 -99 -270 -74 -72 -286 -211 -389 -256 -261
-112 -452 -49 -495 163 -7 38 -16 56 -27 58 -20 4 -21 -20 -7 -120 34 -236
181 -340 400 -283 161 42 403 196 552 352 49 52 58 68 69 121 7 33 16 59 19
57 4 -3 10 -25 13 -49 14 -102 70 -170 150 -183 34 -5 35 -7 41 -62 13 -113
91 -222 171 -237 75 -14 166 1 241 39 142 72 386 283 433 376 66 129 37 327
-64 439 -65 73 -124 75 -193 9 -51 -48 -72 -97 -72 -165 0 -48 4 -62 23 -79
36 -32 43 -35 144 -43 93 -8 140 -26 150 -57 9 -27 -178 -198 -307 -280 -110
-71 -176 -96 -262 -101 -65 -4 -84 -1 -123 18 -46 22 -90 75 -97 115 -2 16 8
22 65 37 132 35 236 109 285 202 24 46 27 62 27 157 0 102 -1 108 -38 181 -64
130 -168 200 -244 164 -67 -32 -133 -166 -118 -243 3 -20 19 -48 33 -63 25
-25 36 -27 127 -32 107 -6 158 -22 190 -57 26 -29 14 -46 -61 -88 -94 -53
-264 -101 -264 -75 0 8 23 94 34 130 4 13 3 22 -3 22 -6 0 -20 -33 -32 -72
-28 -92 -34 -101 -73 -92 -42 8 -65 30 -88 82 -21 46 -24 90 -48 622 -10 227
-34 441 -67 584 -19 86 -38 132 -47 117z m477 -972 c28 -15 67 -50 67 -61 0
-11 -93 -10 -125 2 -31 12 -42 35 -25 55 15 18 53 19 83 4z m480 -100 c28 -15
67 -50 67 -61 0 -11 -103 -10 -134 2 -46 17 -25 69 27 70 10 0 28 -5 40 -11z"/>
<path d="M5540 3741 c-39 -39 -40 -81 -2 -110 l27 -21 -34 -28 c-18 -15 -83
-57 -144 -94 -61 -38 -108 -68 -105 -68 3 0 29 9 59 19 75 26 140 64 199 118
38 34 54 43 62 35 8 -8 15 -9 25 -1 17 14 17 46 1 52 -9 2 -13 24 -13 63 0 54
-2 59 -23 62 -14 2 -33 -7 -52 -27z m50 -46 c0 -28 -8 -31 -35 -12 -21 16 -12
37 16 37 14 0 19 -7 19 -25z"/>
<path d="M4354 3719 c-10 -11 -68 -52 -129 -91 -107 -68 -111 -81 -10 -33 70
34 133 82 151 116 17 34 14 37 -12 8z"/>
<path d="M6171 3564 c-12 -15 -26 -45 -32 -68 -6 -22 -15 -59 -21 -81 l-10
-40 -19 62 c-19 60 -66 123 -93 123 -7 0 -22 -18 -35 -40 -40 -72 -85 -107
-305 -242 -92 -55 -87 -60 19 -18 121 48 204 109 246 178 13 20 24 39 25 41 2
2 11 -2 20 -10 9 -7 28 -13 42 -14 21 0 31 -9 49 -45 12 -25 25 -62 29 -82 12
-69 25 -48 59 99 19 82 36 103 66 85 40 -25 55 22 19 58 -26 26 -34 25 -59 -6z"/>
<path d="M3696 3529 c-10 -59 -5 -89 17 -103 15 -9 22 -7 38 13 24 29 27 60 4
41 -23 -19 -43 4 -47 53 l-3 42 -9 -46z"/>
<path d="M5524 3160 l-19 -40 -49 35 c-27 19 -55 35 -61 35 -10 0 -55 -80 -55
-99 0 -9 100 -81 112 -81 4 0 17 18 28 40 l20 40 55 -36 c29 -20 59 -33 64
-29 12 7 51 79 51 93 0 11 -100 82 -116 82 -5 0 -19 -18 -30 -40z"/>
<path d="M3399 3107 c-15 -11 -39 -49 -39 -61 0 -3 28 -6 63 -7 34 -1 73 -4
87 -8 l25 -7 -25 -16 c-14 -8 -50 -30 -80 -47 -52 -31 -53 -32 -20 -27 59 10
123 49 157 94 40 52 41 69 7 82 -36 14 -156 12 -175 -3z"/>
<path d="M4791 2811 c-30 -36 -63 -60 -114 -85 -57 -28 -65 -34 -37 -29 47 7
115 47 142 83 17 24 25 27 40 19 10 -5 23 -7 28 -4 15 9 12 41 -4 54 -11 9
-22 1 -55 -38z m59 15 c0 -11 -19 -15 -25 -6 -3 5 1 10 9 10 9 0 16 -2 16 -4z"/>
<path d="M4232 2598 c-14 -18 -42 -87 -42 -105 0 -33 24 -3 41 52 19 61 19 75
1 53z"/>
<path d="M3791 2105 c-43 -49 -49 -80 -22 -109 l22 -23 -20 -34 c-32 -56 -37
-103 -12 -128 34 -34 137 -23 192 21 l24 19 -45 -8 c-66 -12 -147 -10 -161 4
-20 20 6 64 77 133 36 35 64 71 64 82 0 18 -2 18 -31 -6 -35 -29 -56 -32 -84
-12 -19 14 -19 15 -1 35 10 11 28 19 40 18 15 -1 22 4 24 21 5 35 -31 28 -67
-13z"/>
<path d="M5326 2089 c-8 -12 -20 -44 -27 -70 -13 -48 -29 -66 -29 -31 0 24
-35 79 -59 92 -17 9 -22 6 -35 -18 -13 -26 -13 -29 5 -40 11 -7 24 -10 28 -7
13 8 30 -17 50 -76 21 -59 19 -60 51 49 20 70 34 84 57 61 18 -18 27 10 12 37
-15 30 -33 31 -53 3z"/>
<path d="M5108 1987 c-20 -18 -76 -56 -124 -84 -91 -55 -97 -64 -25 -38 57 20
147 81 172 117 29 40 21 42 -23 5z"/>
<path d="M5765 1570 c-4 -12 -4 -24 -1 -27 3 -4 6 -1 6 6 0 6 8 11 18 9 22 -4
23 26 0 30 -10 2 -19 -5 -23 -18z"/>
<path d="M5380 1560 c-57 -24 -68 -24 -73 -2 -3 14 -6 12 -15 -9 -6 -15 -19
-30 -29 -34 -10 -3 -63 -23 -118 -42 -101 -36 -130 -53 -124 -71 2 -5 58 12
124 39 66 26 125 48 132 49 21 0 33 -115 44 -429 11 -299 11 -315 -7 -328 -40
-29 -85 -16 -169 47 -94 72 -225 155 -315 200 l-64 32 25 19 c35 28 182 102
279 142 98 41 155 54 164 38 4 -6 -13 -36 -38 -68 -25 -31 -43 -59 -40 -62 3
-3 8 -1 12 5 4 6 24 31 44 55 42 51 60 92 51 115 -13 34 -147 -7 -348 -107
-114 -57 -141 -76 -155 -114 -20 -53 -14 -61 109 -145 134 -91 211 -161 211
-188 0 -21 -90 -69 -208 -112 -63 -23 -89 -51 -77 -82 3 -8 -14 -23 -42 -38
-54 -28 -108 -70 -208 -159 -82 -72 -128 -87 -157 -51 -20 25 -23 53 -8 96 8
21 26 37 70 58 71 35 197 147 216 193 39 91 -14 233 -87 233 -58 0 -105 -106
-63 -141 8 -7 40 -16 71 -20 31 -4 60 -12 66 -18 24 -24 -167 -182 -224 -186
-10 -1 -22 -4 -25 -8 -4 -4 -25 -7 -46 -7 -31 0 -46 7 -70 31 -30 29 -31 33
-26 97 6 66 6 66 -7 27 -17 -50 -18 -105 -4 -142 17 -45 59 -83 92 -83 23 0
27 -3 22 -19 -23 -72 4 -160 56 -181 36 -15 59 -2 178 99 121 103 192 141 261
141 28 0 61 -5 72 -11 16 -9 23 -8 29 2 18 29 9 64 -23 91 l-33 27 55 24 c30
14 73 41 95 60 37 32 40 38 39 85 0 46 1 50 17 41 10 -5 21 -14 24 -20 4 -6
25 -24 47 -40 50 -35 101 -39 134 -8 l22 21 7 -49 c16 -117 88 -178 210 -177
86 0 151 27 213 87 84 81 119 180 93 258 -19 55 -53 73 -151 79 -55 3 -95 11
-111 21 -23 16 -26 15 -63 -17 -54 -47 -137 -60 -144 -23 -4 20 64 102 125
151 27 21 83 59 126 85 72 43 127 96 113 110 -3 3 -36 -13 -74 -35 -38 -23
-90 -47 -114 -53 -40 -11 -50 -10 -91 10 -53 26 -87 67 -90 108 -2 25 3 30 48
45 56 19 131 23 169 8 41 -15 31 7 -11 28 -81 40 -163 34 -215 -16 -15 -14
-30 -24 -32 -21 -2 2 -6 51 -8 108 l-3 105 54 21 c30 11 56 26 59 33 5 16 -14
14 -68 -8z m12 -426 c17 -19 44 -42 60 -50 l29 -15 -41 -45 c-22 -24 -46 -55
-52 -69 -6 -14 -14 -25 -18 -25 -4 0 -10 41 -14 92 -7 111 -8 148 -1 148 3 0
20 -16 37 -36z m164 -291 c16 -52 36 -84 62 -97 37 -19 42 -14 42 42 l0 44 65
-4 c151 -9 168 -115 34 -214 -101 -74 -235 -92 -310 -41 -59 40 -74 70 -77
157 l-4 79 36 -11 c30 -9 43 -8 71 5 19 9 40 26 47 37 16 25 27 26 34 3z
m-958 -75 c17 -17 15 -28 -7 -28 -30 0 -51 11 -51 26 0 17 41 19 58 2z"/>
<path d="M5495 740 c-3 -5 -1 -10 4 -10 6 0 11 5 11 10 0 6 -2 10 -4 10 -3 0
-8 -4 -11 -10z"/>
<path d="M5467 706 c-3 -8 -2 -18 4 -22 6 -3 8 -13 5 -21 -4 -9 5 -6 23 9 35
27 39 38 10 31 -12 -3 -24 0 -29 6 -5 10 -9 9 -13 -3z"/>
<path d="M5463 615 c3 -23 52 -34 70 -16 8 8 1 11 -25 11 -20 0 -39 6 -42 13
-3 6 -5 3 -3 -8z"/>
<path d="M5669 1564 c-13 -16 -10 -22 22 -38 12 -6 28 -26 34 -45 9 -28 13
-31 18 -17 10 24 9 48 -1 42 -5 -3 -14 10 -20 29 -15 38 -35 50 -53 29z"/>
<path d="M2293 1538 c-7 -15 -7 -64 -1 -143 12 -163 37 -432 44 -476 6 -33 4
-37 -29 -52 -46 -22 -49 -22 -69 12 -25 45 -63 66 -93 53 -27 -13 -50 -45 -59
-85 -5 -21 -1 -33 19 -53 22 -22 33 -25 75 -22 53 3 64 -5 47 -37 -25 -48
-202 -153 -379 -224 -40 -16 -98 -41 -128 -55 l-55 -26 45 6 c99 14 262 63
327 99 141 77 205 139 219 213 6 28 14 37 52 53 l45 19 34 -35 c26 -27 42 -35
69 -35 30 0 37 5 49 33 15 37 10 84 -13 110 -12 14 -28 18 -66 16 -50 -3 -50
-3 -58 31 -8 38 -24 215 -33 378 -7 102 -6 104 14 97 20 -6 20 -4 -7 69 -15
42 -30 76 -33 76 -3 0 -10 -10 -16 -22z m-122 -668 c28 -16 23 -30 -10 -30
-34 0 -51 18 -30 31 18 11 17 11 40 -1z m304 -41 c10 -15 -13 -19 -40 -7 -16
7 -21 14 -14 19 13 8 47 1 54 -12z"/>
<path d="M5577 1482 c-37 -25 -65 -47 -63 -49 8 -8 82 36 110 66 37 39 36 38
-47 -17z"/>
<path d="M7882 1457 c-6 -7 -16 -35 -23 -62 -16 -67 -25 -74 -38 -32 -15 44
-48 87 -66 87 -8 0 -19 -10 -26 -21 -9 -17 -8 -25 5 -38 9 -8 24 -16 34 -16
12 0 25 -20 42 -64 l25 -64 12 44 c7 24 18 64 24 88 10 41 12 43 40 37 23 -4
29 -2 29 12 0 35 -37 54 -58 29z"/>
<path d="M5967 1442 c-21 -23 -21 -41 -1 -63 15 -17 13 -21 -50 -60 -36 -24
-64 -44 -62 -46 7 -7 81 34 114 62 18 15 36 24 42 20 6 -4 8 12 5 42 -2 26 -4
51 -5 56 0 14 -27 7 -43 -11z m31 -23 c-2 -6 -8 -10 -13 -10 -5 0 -11 4 -13
10 -2 6 4 11 13 11 9 0 15 -5 13 -11z"/>
<path d="M4371 1424 c-11 -14 -23 -45 -27 -70 -8 -58 -20 -63 -34 -17 -14 42
-46 83 -66 83 -7 0 -18 -9 -24 -21 -14 -25 2 -49 32 -49 22 0 57 -68 58 -111
0 -34 -37 -67 -153 -139 -48 -29 -85 -55 -83 -58 8 -8 149 63 184 93 41 34 76
102 91 176 15 72 33 98 54 81 19 -16 31 -1 22 27 -9 30 -32 32 -54 5z"/>
<path d="M2503 1413 c-5 -15 -6 -50 -2 -78 14 -101 11 -142 -13 -161 l-23 -16
23 5 c17 4 23 0 27 -16 8 -43 27 -446 21 -462 -3 -9 -2 -14 3 -11 32 20 37
188 15 441 l-6 70 32 19 c39 23 100 75 100 87 0 4 -27 -11 -61 -34 -65 -45
-79 -42 -79 16 0 24 3 27 20 22 19 -6 18 -3 -6 62 -31 84 -39 92 -51 56z"/>
<path d="M4792 1428 c-15 -15 -16 -54 -2 -63 20 -13 9 -27 -55 -67 -36 -22
-64 -43 -61 -45 6 -7 80 33 114 62 16 14 38 25 47 25 12 0 15 5 10 18 -4 9 -7
32 -6 50 1 25 -2 32 -17 32 -10 0 -23 -5 -30 -12z m28 -23 c0 -8 -4 -15 -10
-15 -5 0 -10 7 -10 15 0 8 5 15 10 15 6 0 10 -7 10 -15z"/>
<path d="M6582 1409 c-6 -15 -4 -81 4 -174 7 -82 15 -202 19 -265 4 -63 10
-158 14 -210 l7 -95 14 59 c11 49 12 90 2 255 -7 108 -15 223 -19 255 -5 52
-4 59 11 53 21 -8 20 0 -5 70 -27 73 -36 83 -47 52z"/>
<path d="M3247 1392 c-20 -22 -22 -43 -5 -60 15 -15 -11 -45 -70 -79 -24 -14
-41 -27 -38 -30 7 -8 80 34 105 61 16 17 31 24 43 20 17 -5 18 -1 12 38 -10
76 -17 83 -47 50z m24 -25 c-1 -12 -15 -9 -19 4 -3 6 1 10 8 8 6 -3 11 -8 11
-12z"/>
<path d="M7245 1387 c-8 -13 -18 -38 -21 -55 -9 -45 -20 -48 -34 -8 -6 18 -20
42 -31 52 -20 18 -21 18 -57 -26 -20 -24 -77 -70 -127 -103 -88 -58 -85 -67 6
-21 26 13 64 43 86 68 32 37 43 43 66 39 29 -6 48 -34 61 -88 9 -34 19 -22 30
35 14 71 26 90 52 84 26 -7 33 13 12 34 -17 17 -26 15 -43 -11z"/>
<path d="M2204 1375 c-16 -24 -16 -27 2 -46 18 -20 18 -21 -10 -42 -16 -12
-50 -35 -75 -50 -28 -17 -36 -26 -21 -21 38 10 72 29 103 58 15 14 34 26 41
26 19 0 27 12 16 25 -5 6 -8 24 -7 40 3 39 -26 45 -49 10z m33 -21 c-9 -9 -28
6 -21 18 4 6 10 6 17 -1 6 -6 8 -13 4 -17z"/>
<path d="M3372 1383 c-7 -13 -6 -84 4 -223 30 -444 30 -425 3 -443 -23 -17
-83 -22 -113 -11 -9 3 -31 28 -51 55 -24 34 -42 49 -58 49 -34 0 -81 -54 -125
-145 -44 -90 -60 -108 -94 -103 -37 5 -58 60 -59 153 -1 88 -16 71 -18 -20 -1
-65 15 -122 45 -162 45 -60 79 -38 136 87 34 73 88 135 112 127 6 -2 25 -25
43 -51 30 -46 31 -50 17 -82 -21 -50 -18 -152 6 -191 26 -44 54 -56 116 -51
98 8 255 135 298 241 18 45 33 64 62 83 46 28 54 29 54 9 0 -22 41 -55 68 -55
13 0 32 5 44 11 11 6 21 9 23 7 2 -2 -3 -28 -12 -59 -15 -53 -14 -58 5 -102
23 -52 56 -71 100 -60 16 4 70 51 131 115 60 62 122 116 146 128 49 24 108 26
129 4 21 -20 36 -10 36 25 0 66 -81 83 -169 36 -27 -15 -97 -76 -157 -136 -59
-60 -118 -112 -130 -115 -36 -9 -57 -1 -74 28 -13 25 -13 34 3 95 21 80 30 92
53 69 23 -23 63 -16 86 15 23 30 33 97 19 119 -15 22 -26 4 -25 -41 1 -39 1
-40 -30 -37 -27 3 -32 7 -36 38 l-5 35 -25 -37 c-54 -81 -142 -91 -148 -16
l-3 36 -56 -34 c-31 -19 -62 -34 -69 -34 -7 0 -22 15 -33 33 -39 64 -94 66
-131 5 -44 -73 -15 -118 77 -118 46 0 53 -3 53 -19 0 -28 -122 -135 -193 -171
-63 -31 -131 -39 -168 -20 -23 13 -49 61 -49 92 0 13 5 39 10 60 l10 36 58 -5
c72 -6 103 15 128 89 14 44 16 76 11 212 -4 89 -10 198 -13 244 -6 74 -5 82
10 76 9 -3 16 -4 16 -1 0 7 -51 141 -55 145 -2 2 -8 -5 -13 -15z m196 -635
c20 -20 13 -29 -20 -26 -40 4 -54 38 -16 38 13 0 29 -5 36 -12z"/>
<path d="M1958 1368 l-23 -23 53 -3 c28 -2 52 -7 52 -12 0 -5 -17 -19 -37 -30
-37 -20 -37 -21 -8 -15 28 5 95 64 95 84 0 11 -35 21 -77 21 -21 0 -41 -8 -55
-22z"/>
<path d="M2831 1362 c-5 -9 -12 -34 -16 -55 -9 -46 -21 -55 -29 -21 -17 66
-59 93 -83 54 -11 -16 -10 -21 6 -30 11 -5 26 -10 35 -10 9 0 21 -20 31 -51 9
-28 19 -48 21 -46 3 3 13 33 22 68 17 60 20 64 45 62 28 -2 31 4 21 31 -8 21
-41 20 -53 -2z"/>
<path d="M3997 1342 c-21 -23 -21 -36 -2 -52 8 -7 15 -16 15 -21 0 -4 -29 -27
-65 -50 -36 -23 -63 -44 -61 -46 7 -7 79 34 108 61 15 14 34 26 42 26 19 0 30
17 16 25 -5 3 -10 22 -10 41 0 38 -17 45 -43 16z m33 -23 c0 -5 -7 -9 -15 -9
-15 0 -20 12 -9 23 8 8 24 -1 24 -14z"/>
<path d="M8140 1308 c-130 -48 -159 -62 -149 -72 4 -5 278 100 288 110 16 16
-22 6 -139 -38z"/>
<path d="M1537 1332 c-22 -24 -22 -48 1 -61 15 -10 14 -13 -12 -33 -16 -13
-50 -35 -75 -50 -25 -15 -39 -28 -30 -28 18 0 98 50 118 73 7 9 22 17 33 17
16 0 19 5 14 23 -3 12 -6 34 -6 50 0 32 -19 36 -43 9z m33 -23 c0 -5 -7 -9
-15 -9 -15 0 -20 12 -9 23 8 8 24 -1 24 -14z"/>
<path d="M1822 1318 c-7 -7 -11 -21 -11 -32 1 -19 2 -19 6 -3 3 13 11 17 24
14 15 -4 19 -1 17 10 -4 21 -21 26 -36 11z"/>
<path d="M1724 1306 c-7 -18 3 -36 20 -36 20 0 48 -68 36 -90 -14 -26 -13 -30
7 -30 14 0 13 -3 -5 -16 -23 -16 -27 -52 -11 -109 6 -22 6 -15 3 22 -6 52 -6
52 30 67 41 17 45 35 15 62 -16 14 -19 26 -14 54 4 22 2 30 -3 22 -7 -11 -14
-4 -28 24 -21 42 -41 54 -50 30z"/>
<path d="M6255 1258 c-126 -48 -166 -68 -134 -68 18 0 271 98 284 111 18 18
-20 7 -150 -43z"/>
<path d="M6761 1287 c-1 -21 3 -28 16 -25 21 4 30 28 10 28 -9 0 -18 6 -20 13
-3 6 -6 -1 -6 -16z"/>
<path d="M5990 1278 c0 -42 31 -66 44 -33 3 9 0 15 -9 15 -8 0 -19 8 -24 18
-9 15 -10 15 -11 0z"/>
<path d="M4820 1241 c0 -25 15 -34 28 -18 8 9 6 16 -9 25 -16 11 -19 9 -19 -7z"/>
<path d="M1246 1231 c-18 -19 -17 -20 30 -23 27 -2 49 -7 49 -13 0 -5 -18 -20
-40 -33 -37 -22 -38 -23 -10 -17 39 8 71 29 91 60 22 34 11 45 -50 45 -40 0
-57 -5 -70 -19z"/>
<path d="M3490 1220 c-10 -19 -8 -20 40 -20 27 0 50 -4 50 -10 0 -5 -17 -18
-37 -29 -33 -17 -35 -20 -14 -21 27 0 106 73 96 90 -3 5 -33 10 -65 10 -49 0
-61 -3 -70 -20z"/>
<path d="M7814 1229 c-5 -9 -112 -81 -230 -156 -10 -7 7 -3 39 7 78 26 171 93
198 143 10 18 5 24 -7 6z"/>
<path d="M3273 1210 c2 -26 27 -35 35 -12 2 6 -3 12 -11 12 -9 0 -18 6 -21 13
-3 6 -4 1 -3 -13z"/>
<path d="M8151 1208 c-12 -19 -11 -24 9 -40 30 -24 47 -23 56 4 5 16 1 27 -16
40 -28 23 -32 23 -49 -4z"/>
<path d="M7381 1156 c-74 -29 -137 -58 -139 -64 -2 -8 20 -3 60 12 165 63 228
90 228 98 0 12 -1 11 -149 -46z"/>
<path d="M867 1146 c-122 -47 -181 -76 -151 -76 21 0 289 109 292 119 2 6 2
11 0 10 -1 -1 -65 -25 -141 -53z"/>
<path d="M6284 1174 c5 -35 -14 -71 -32 -60 -7 4 -12 23 -12 42 0 19 -4 33 -9
29 -11 -6 -3 -75 11 -90 5 -6 16 -5 29 3 14 9 24 10 33 3 28 -24 50 44 25 79
-8 11 -9 5 -4 -24 8 -51 -15 -45 -33 10 -10 33 -11 34 -8 8z"/>
<path d="M1561 1163 c-1 -35 14 -52 32 -34 8 8 7 14 -5 23 -9 7 -18 20 -21 28
-3 8 -6 1 -6 -17z"/>
<path d="M6710 1137 c0 -7 9 -30 20 -52 11 -22 20 -57 21 -80 0 -31 2 -36 9
-20 14 32 11 81 -6 125 -15 38 -44 55 -44 27z"/>
<path d="M3001 1121 c-25 -25 -27 -47 -5 -59 23 -13 13 -24 -59 -71 -34 -23
-55 -41 -47 -41 19 0 78 35 112 67 14 14 31 22 36 19 15 -9 25 13 13 28 -6 6
-9 25 -8 41 3 35 -16 42 -42 16z m29 -27 c0 -9 -5 -14 -12 -12 -18 6 -21 28
-4 28 9 0 16 -7 16 -16z"/>
<path d="M4650 1123 c-230 -83 -267 -99 -256 -110 6 -6 267 95 281 108 10 10
0 11 -25 2z"/>
<path d="M7005 1101 c-85 -51 -166 -213 -136 -270 15 -27 43 -41 120 -60 36
-9 66 -21 68 -28 4 -11 -92 -83 -110 -83 -5 0 -5 9 -2 20 9 30 -1 24 -22 -13
-15 -25 -34 -37 -89 -57 -137 -49 -233 -28 -268 60 -21 53 -20 74 5 155 26 84
18 96 -11 18 -31 -80 -33 -204 -5 -252 35 -59 67 -76 143 -75 43 1 88 9 126
24 63 24 76 20 76 -28 0 -33 52 -82 86 -82 28 0 38 10 209 189 33 35 77 71 97
82 46 24 111 25 129 2 19 -22 72 -43 109 -43 39 0 77 20 114 59 35 37 44 38
48 10 2 -12 15 -31 30 -42 36 -27 87 -16 134 28 44 42 50 43 58 10 14 -55 92
-52 124 5 16 28 32 39 32 22 0 -5 9 -18 20 -30 16 -17 32 -22 71 -22 60 0 114
26 157 75 28 31 32 43 32 95 0 110 -52 185 -122 178 -28 -3 -37 -10 -57 -51
-20 -41 -22 -51 -11 -76 13 -32 34 -41 96 -41 52 0 83 -22 68 -47 -16 -26
-111 -62 -164 -63 -51 0 -70 13 -70 47 0 28 -16 30 -25 3 -9 -29 -54 -60 -85
-60 -31 0 -46 14 -52 48 -3 22 -4 22 -40 -12 -74 -70 -178 -67 -178 5 0 16 -2
29 -5 29 -4 0 -23 -16 -43 -36 -72 -71 -140 -82 -212 -34 -85 57 -160 34 -269
-82 -171 -183 -176 -188 -209 -188 -38 0 -62 23 -61 58 0 22 13 35 71 72 83
53 113 90 113 142 0 46 -20 63 -95 79 -69 14 -110 35 -110 55 0 21 53 96 90
128 35 29 62 33 80 11 17 -21 30 -9 30 29 0 56 -32 70 -85 37z m1246 -121 c28
-16 23 -30 -10 -30 -31 0 -47 13 -36 30 8 13 21 13 46 0z"/>
<path d="M3746 1058 c-9 -12 -16 -27 -16 -33 0 -5 5 -2 11 7 5 10 16 15 24 12
9 -4 15 0 15 9 0 26 -18 29 -34 5z"/>
<path d="M2117 1052 c-19 -21 -22 -48 -7 -57 8 -5 7 -11 -1 -21 -18 -22 5 -16
47 12 49 33 49 33 42 40 -4 3 -15 1 -26 -5 -22 -12 -55 -4 -46 10 3 5 14 9 25
9 10 0 19 7 19 15 0 21 -33 19 -53 -3z"/>
<path d="M6427 1048 c-9 -32 19 -157 50 -224 29 -65 24 -87 -22 -92 -65 -8
-92 34 -119 183 -18 99 -32 138 -47 129 -7 -4 -9 -26 -5 -63 19 -160 19 -184
1 -217 -32 -60 -117 -75 -155 -26 -20 24 -22 34 -16 102 4 41 9 92 12 113 5
29 3 37 -9 37 -27 0 -54 -58 -92 -202 -14 -52 -36 -88 -54 -88 -4 0 -15 6 -25
13 -13 10 -20 34 -26 93 l-8 79 1 -87 c2 -94 22 -140 65 -146 30 -5 48 28 73
133 21 91 33 124 42 115 3 -3 1 -32 -5 -65 -18 -118 22 -195 103 -195 49 0 93
37 112 93 l14 42 20 -40 c41 -80 99 -104 148 -62 41 35 46 122 12 229 -20 63
-22 78 -10 80 10 2 7 13 -14 46 -31 48 -38 51 -46 20z"/>
<path d="M3647 1053 c-14 -13 -6 -31 16 -37 15 -3 27 -18 36 -42 10 -27 16
-33 22 -23 10 16 12 45 2 36 -3 -4 -14 11 -24 33 -17 37 -36 49 -52 33z"/>
<path d="M1499 1018 c-10 -18 -8 -24 11 -40 27 -22 46 -23 54 -2 11 28 6 41
-19 52 -33 15 -32 16 -46 -10z"/>
<path d="M1257 1024 c-15 -16 -5 -66 28 -145 19 -46 35 -89 35 -96 0 -29 -158
-142 -171 -122 -4 8 -10 6 -16 -5 -12 -22 -103 -46 -176 -46 -101 0 -157 42
-183 138 l-13 47 0 -51 c-1 -81 37 -153 100 -185 46 -23 135 -25 202 -5 25 7
48 11 51 8 4 -3 6 -21 6 -39 0 -41 22 -86 52 -107 55 -39 159 -6 260 80 75 65
113 114 127 166 9 31 21 48 42 61 39 22 49 21 49 -1 0 -32 33 -52 84 -52 43 0
53 4 85 38 20 20 41 46 47 57 10 19 11 19 62 -3 91 -39 112 -26 112 72 0 43
-5 61 -24 82 -21 25 -26 27 -52 16 -34 -14 -73 -60 -99 -116 -23 -48 -67 -76
-122 -76 -34 0 -46 5 -58 24 -9 13 -15 28 -14 32 4 23 -4 23 -44 -1 -24 -14
-48 -25 -54 -25 -6 0 -21 16 -34 34 -29 43 -63 60 -89 46 -32 -17 -60 -61 -60
-96 0 -45 33 -67 97 -63 40 3 48 0 51 -15 6 -28 -109 -130 -191 -171 -100 -50
-171 -44 -203 16 -22 43 -18 52 38 83 68 38 137 103 154 143 20 47 17 81 -12
143 -15 33 -21 56 -15 58 6 2 11 8 11 12 0 15 -56 71 -63 64z m725 -171 c17
-15 25 -43 13 -43 -3 0 -21 7 -40 14 -36 15 -45 30 -22 39 21 9 30 7 49 -10z
m-492 -78 c11 -13 7 -15 -23 -15 -20 0 -38 4 -41 9 -15 24 44 30 64 6z"/>
<path d="M964 878 c-5 -16 -1 -27 16 -40 29 -23 37 -23 51 4 10 18 8 24 -11
40 -30 24 -47 23 -56 -4z"/>
<path d="M2656 859 c-18 -21 -26 -42 -26 -69 0 -46 11 -55 88 -65 78 -10 78
-27 2 -97 -116 -105 -235 -146 -297 -103 -32 22 -46 74 -34 126 14 60 12 71
-4 29 -7 -19 -14 -59 -14 -88 -3 -198 164 -205 359 -14 65 63 86 115 74 180
-22 119 -92 168 -148 101z m69 -49 c18 -20 17 -20 -18 -20 -36 0 -53 12 -42
30 10 16 41 11 60 -10z"/>
<path d="M4780 840 c0 -5 7 -10 15 -10 8 0 15 5 15 10 0 6 -7 10 -15 10 -8 0
-15 -4 -15 -10z"/>
<path d="M771 824 c0 -11 3 -14 6 -6 3 7 2 16 -1 19 -3 4 -6 -2 -5 -13z"/>
<path d="M4700 825 c0 -8 6 -15 14 -15 18 0 39 -53 31 -79 -4 -13 -2 -21 5
-21 7 0 5 -6 -4 -16 -9 -8 -15 -25 -15 -37 2 -22 2 -22 6 1 2 12 10 22 17 22
7 0 21 6 31 14 18 13 18 14 -3 32 -12 10 -22 27 -22 37 0 28 -29 77 -45 77 -8
0 -15 -7 -15 -15z"/>
<path d="M1860 620 c-69 -27 -129 -51 -135 -53 -5 -2 -7 -7 -4 -11 7 -7 267
89 284 105 18 18 -21 7 -145 -41z"/>
<path d="M2244 589 c-30 -40 -54 -59 -123 -95 -64 -33 -77 -43 -51 -38 73 13
157 70 173 117 3 9 10 9 29 -2 15 -7 31 -10 37 -7 23 15 6 76 -21 76 -4 0 -24
-23 -44 -51z m61 11 c3 -5 -1 -10 -9 -10 -9 0 -16 5 -16 10 0 6 4 10 9 10 6 0
13 -4 16 -10z"/>
<path d="M5886 598 c-4 -24 -3 -45 4 -52 17 -17 12 -23 -51 -61 -33 -21 -58
-39 -55 -42 7 -7 85 39 119 71 16 15 33 24 38 20 14 -8 39 15 39 36 0 20 -54
70 -74 70 -8 0 -16 -18 -20 -42z m34 -18 c0 -13 -5 -18 -15 -14 -16 7 -19 17
-8 27 12 13 23 7 23 -13z m40 -5 c10 -13 9 -15 -9 -15 -12 0 -21 6 -21 15 0 8
4 15 9 15 5 0 14 -7 21 -15z"/>
<path d="M4741 604 c0 -11 3 -14 6 -6 3 7 2 16 -1 19 -3 4 -6 -2 -5 -13z"/>
<path d="M7871 606 c-1 -13 -6 -17 -21 -13 -11 3 -23 1 -26 -4 -3 -5 -25 -9
-49 -9 -46 0 -94 -30 -116 -74 -8 -14 0 -10 25 14 32 30 43 35 81 33 25 -1 47
3 50 8 4 5 17 9 31 9 25 0 40 20 31 42 -3 8 -6 5 -6 -6z"/>
<path d="M5125 592 c-11 -9 -27 -26 -35 -37 -11 -14 -6 -12 24 7 21 15 45 24
52 21 8 -3 14 1 14 11 0 21 -30 20 -55 -2z"/>
<path d="M3065 529 c-5 -29 -3 -44 5 -49 22 -13 5 -34 -61 -73 -35 -21 -53
-36 -39 -32 33 9 102 54 118 77 8 10 25 18 43 18 24 0 29 4 29 25 0 31 -41 75
-69 75 -15 0 -21 -9 -26 -41z m35 -9 c0 -5 10 -9 21 -7 12 1 24 -4 26 -11 4
-10 -4 -12 -33 -6 -46 8 -48 9 -39 23 8 14 25 14 25 1z"/>
<path d="M3797 546 c-4 -10 -13 -16 -22 -12 -8 3 -17 1 -20 -4 -4 -6 -26 -10
-51 -10 -37 0 -51 -6 -84 -36 -22 -20 -38 -39 -35 -42 3 -3 18 7 33 21 22 21
38 27 74 27 26 0 50 5 53 10 4 6 15 8 24 5 22 -7 44 17 39 42 -3 17 -4 17 -11
-1z"/>
<path d="M7229 518 c-10 -19 -8 -25 17 -45 29 -23 29 -23 44 -3 14 19 17 19
38 4 18 -12 26 -13 37 -4 23 19 18 45 -11 61 -23 12 -27 11 -39 -5 -13 -17
-15 -17 -37 -2 -29 21 -35 20 -49 -6z"/>
<path d="M5073 510 c2 -12 17 -14 75 -11 44 2 72 -1 72 -7 0 -15 -29 -23 -108
-29 -59 -5 -70 -8 -61 -19 14 -17 51 -18 119 -3 39 8 54 17 62 35 18 38 -2 49
-88 49 -61 0 -74 -3 -71 -15z"/>
<path d="M7609 463 c-13 -16 -12 -17 4 -4 9 7 17 15 17 17 0 8 -8 3 -21 -13z"/>
<path d="M3539 403 c-13 -16 -12 -17 4 -4 16 13 21 21 13 21 -2 0 -10 -8 -17
-17z"/>
</g>
</svg>
