<svg width="45" height="46" viewBox="0 0 45 46" fill="none" xmlns="http://www.w3.org/2000/svg">
<path d="M36.29 9.03418C32.6074 5.34277 27.7031 3.3125 22.4912 3.3125C11.7334 3.3125 2.97949 12.0664 2.97949 22.8242C2.97949 26.2607 3.87598 29.6182 5.58105 32.5801L2.8125 42.6875L13.1572 39.9717C16.0049 41.5273 19.2129 42.3447 22.4824 42.3447H22.4912C33.2402 42.3447 42.1875 33.5908 42.1875 22.833C42.1875 17.6211 39.9727 12.7256 36.29 9.03418ZM22.4912 39.0576C19.5732 39.0576 16.7168 38.2754 14.2295 36.7988L13.6406 36.4473L7.50586 38.0557L9.14062 32.0703L8.75391 31.4551C7.12793 28.8711 6.27539 25.8916 6.27539 22.8242C6.27539 13.8857 13.5527 6.6084 22.5 6.6084C26.833 6.6084 30.9023 8.2959 33.9609 11.3633C37.0195 14.4307 38.9004 18.5 38.8916 22.833C38.8916 31.7803 31.4297 39.0576 22.4912 39.0576ZM31.3857 26.9111C30.9023 26.665 28.5029 25.4873 28.0547 25.3291C27.6064 25.1621 27.2813 25.083 26.9561 25.5752C26.6309 26.0674 25.6992 27.1572 25.4092 27.4912C25.1279 27.8164 24.8379 27.8604 24.3545 27.6143C21.4893 26.1816 19.6084 25.0566 17.7188 21.8135C17.2178 20.9521 18.2197 21.0137 19.1514 19.1504C19.3096 18.8252 19.2305 18.5439 19.1074 18.2979C18.9844 18.0518 18.0088 15.6523 17.6045 14.6768C17.209 13.7275 16.8047 13.8594 16.5059 13.8418C16.2246 13.8242 15.8994 13.8242 15.5742 13.8242C15.249 13.8242 14.7217 13.9473 14.2734 14.4307C13.8252 14.9229 12.5684 16.1006 12.5684 18.5C12.5684 20.8994 14.3174 23.2197 14.5547 23.5449C14.8008 23.8701 17.9912 28.792 22.8867 30.9102C25.9805 32.2461 27.1934 32.3604 28.7402 32.1318C29.6807 31.9912 31.623 30.9541 32.0273 29.8115C32.4316 28.6689 32.4316 27.6934 32.3086 27.4912C32.1943 27.2715 31.8691 27.1484 31.3857 26.9111Z" fill="white"/>
</svg>
